<?xml version="1.0" encoding="utf-8"?>
<!-- Generator: Adobe Illustrator 16.0.0, SVG Export Plug-In . SVG Version: 6.00 Build 0)  -->
<!DOCTYPE svg PUBLIC "-//W3C//DTD SVG 1.1//EN" "http://www.w3.org/Graphics/SVG/1.1/DTD/svg11.dtd">
<svg version="1.1" id="Layer_1" xmlns="http://www.w3.org/2000/svg" xmlns:xlink="http://www.w3.org/1999/xlink" x="0px" y="0px"
	 width="400px" height="400px" viewBox="0 0 400 400" enable-background="new 0 0 400 400" xml:space="preserve">
<g>
	<g>
		<path fill="#A6A6A6" d="M0,80h20V20h60V0H0V80z M20,320H0v80h80v-20H20V320z M320,0v20h60v60h20V0H320z M380,380h-60v20h80v-80
			h-20V380z"/>
	</g>
</g>
<circle fill="#FFFFFF" cx="200" cy="200" r="200"/>
<g>
	<g>
		<path fill="#A6A6A6" d="M56.979,277.783v-9.023h6.027v0.805h-5.129v8.22L56.979,277.783L56.979,277.783z"/>
		<path fill="#A6A6A6" d="M72.088,270.575c0.731-1.497,2.004-2.041,3.576-2.041c2.64,0,4.101,2.208,4.101,4.698
			c0,4.287-4.288,5.973-7.563,3.539v5.672h-0.88v-10.932c0-1.367,0.112-2.304-1.16-2.099l-0.038-0.748
			c1.498-0.244,1.965,0.394,1.965,1.647V270.575L72.088,270.575z M72.202,275.836c2.752,2.303,6.646,1.255,6.646-2.604
			c0-2.021-1.123-3.856-3.333-3.856c-1.985,0-3.258,1.554-3.313,3.444V275.836z"/>
		<path fill="#A6A6A6" d="M90.626,277.932c-1.571,0-3.201-1.01-3.201-2.731c0-2.041,1.685-3.033,3.5-3.033
			c1.123,0,2.321,0.243,3.352,0.787v-1.386c0-1.762-1.61-2.209-3.052-2.209c-1.047,0-2.135,0.242-2.902,0.691l-0.206-0.748
			c0.842-0.469,2.041-0.75,3.221-0.75c1.947,0,3.8,0.787,3.8,3.033l-0.02,4.118c0,1.086-0.056,1.704,1.142,1.554l0.038,0.619
			c-1.534,0.242-1.928-0.301-1.872-1.725C93.715,277.465,92.124,277.932,90.626,277.932z M94.276,273.738
			c-0.974-0.523-2.171-0.844-3.238-0.823c-1.348,0-2.79,0.749-2.733,2.245c0.057,1.387,1.216,2.005,2.472,2.005
			c1.459,0,3.106-0.655,3.5-2.21V273.738z"/>
		<path fill="#A6A6A6" d="M110.379,282.369v-5.635c-3.293,2.356-6.683,0.861-6.683-3.502c0-4.381,3.389-5.857,6.683-3.52v-5.561
			h0.88v5.561c3.258-2.339,6.646-0.861,6.646,3.52c0,4.363-3.389,5.858-6.646,3.502v5.635H110.379z M110.398,275.872v-5.278
			c-2.733-2.283-5.766-1.271-5.766,2.641S107.665,278.139,110.398,275.872z M111.259,270.594v5.278
			c2.715,2.267,5.748,1.272,5.748-2.64S113.974,268.311,111.259,270.594z"/>
		<path fill="#A6A6A6" d="M126.708,277.783h-0.317v-9.023h0.88v4.867l-0.113,2.489l6.478-7.356c0.112,0,0.226,0,0.338,0
			c0,3.014,0,6.026,0,9.023c-0.281,0-0.563,0-0.861,0v-5.432l0.093-1.965L126.708,277.783z"/>
		<path fill="#A6A6A6" d="M148.765,272.971v-4.211h0.88v9.023h-0.898v-3.857c-2.677,1.797-6.383,1.067-6.383-2.996v-2.17h0.898v2.17
			C143.261,274.395,146.444,274.768,148.765,272.971z"/>
		<path fill="#A6A6A6" d="M166.646,273.309h-7.657c0,2.603,1.629,3.799,4.006,3.856c1.216-0.021,2.247-0.302,3.127-0.692
			l0.187,0.766c-1.049,0.47-2.246,0.73-3.294,0.73c-3.033,0-5.073-1.777-4.924-5.016c0.149-2.752,1.984-4.383,4.568-4.383
			C165.58,268.59,167.152,270.294,166.646,273.309z M165.897,272.54c0.207-2.133-1.255-3.22-3.276-3.22s-3.407,1.199-3.613,3.22
			H165.897z"/>
		<path fill="#A6A6A6" d="M182.487,271.249c-0.543-1.255-1.797-1.873-3.089-1.89c-1.929-0.021-3.969,1.291-3.969,3.873
			c0,2.547,1.947,3.875,3.838,3.875c1.385,0,2.732-0.711,3.295-2.152h0.896c-0.618,1.984-2.415,2.958-4.229,2.958
			c-2.321,0-4.698-1.572-4.698-4.681c0-3.127,2.471-4.717,4.849-4.681c1.723,0.037,3.389,0.919,3.987,2.696L182.487,271.249
			L182.487,271.249z"/>
		<path fill="#A6A6A6" d="M194.136,272.689c2.639,0,4.023-1.234,4.023-3.949h0.861c0.018,2.078-0.769,3.726-2.809,4.344l3.258,4.568
			v0.111h-0.955l-3.125-4.418c-0.395,0.074-0.823,0.112-1.273,0.112h-1.479v4.306h-0.898v-9.023h0.898v3.949H194.136z"/>
		<path fill="#A6A6A6" d="M207.842,277.783h-0.316v-9.023h0.879v4.867l-0.112,2.489l6.479-7.356c0.111,0,0.224,0,0.337,0
			c0,3.014,0,6.026,0,9.023c-0.281,0-0.563,0-0.861,0v-5.432l0.094-1.965L207.842,277.783z"/>
		<path fill="#A6A6A6" d="M224.45,277.783h-0.318v-9.023h0.882v4.867l-0.112,2.489l6.477-7.356c0.112,0,0.226,0,0.337,0
			c0,3.014,0,6.026,0,9.023c-0.278,0-0.561,0-0.858,0v-5.432l0.093-1.965L224.45,277.783z M225.593,264.752
			c0.206,1.35,1.329,2.116,2.583,2.116c1.349,0,2.397-0.823,2.583-2.116c-0.186-0.02-0.392-0.074-0.578-0.092
			c-0.188,0.99-1.068,1.516-2.022,1.516c-1.011-0.02-1.797-0.563-1.967-1.516L225.593,264.752z"/>
		<path fill="#A6A6A6" d="M250.571,280.141l-0.018-3.086c0,0,0,0,0.018,0h0.338c1.403,0,1.498-1.631,1.74-3.615l0.617-4.68h5.58
			v8.295h1.254l-0.02,3.086h-0.786v-2.356h-7.938v2.356H250.571z M257.984,269.544h-3.987l-0.581,4.438
			c-0.242,1.779-0.335,2.527-1.121,3.072h5.689V269.544z"/>
		<path fill="#A6A6A6" d="M268.51,277.783h-0.318v-9.023h0.879v4.867l-0.112,2.489l6.479-7.356c0.11,0,0.224,0,0.339,0
			c0,3.014,0,6.026,0,9.023c-0.282,0-0.563,0-0.862,0v-5.432l0.093-1.965L268.51,277.783z"/>
		<path fill="#A6A6A6" d="M284.331,269.32c0.824-0.469,2.021-0.73,3.09-0.73c1.592,0,3.313,0.563,3.313,2.396
			c0,0.992-0.504,1.76-1.534,1.984c1.254,0.225,2.096,1.029,2.096,2.34c0,1.91-1.853,2.658-3.648,2.658
			c-1.367,0-2.789-0.431-3.651-1.105l0.059-0.896c0.729,0.692,2.34,1.217,3.481,1.217c1.421-0.019,2.844-0.561,2.844-1.947
			c0-1.723-1.739-1.834-3.199-1.834c-0.375,0-0.749,0-1.088,0v-0.729c0.339,0,0.675,0.019,1.049,0.019
			c1.236-0.019,2.678-0.149,2.678-1.629c0-1.385-1.328-1.666-2.508-1.666c-0.917,0-2.136,0.242-2.884,0.711L284.331,269.32z"/>
		<path fill="#A6A6A6" d="M302.119,277.932c-1.572,0-3.2-1.01-3.2-2.731c0-2.041,1.686-3.033,3.501-3.033
			c1.124,0,2.32,0.243,3.351,0.787v-1.386c0-1.762-1.61-2.209-3.051-2.209c-1.049,0-2.134,0.242-2.901,0.691l-0.207-0.748
			c0.842-0.469,2.041-0.75,3.221-0.75c1.947,0,3.8,0.787,3.8,3.033l-0.02,4.118c0,1.086-0.055,1.704,1.143,1.554l0.038,0.619
			c-1.535,0.242-1.928-0.301-1.871-1.725C305.209,277.465,303.616,277.932,302.119,277.932z M305.77,273.738
			c-0.973-0.523-2.172-0.844-3.238-0.823c-1.348,0-2.79,0.749-2.732,2.245c0.056,1.387,1.217,2.005,2.472,2.005
			c1.459,0,3.105-0.655,3.5-2.21L305.77,273.738L305.77,273.738z"/>
		<path fill="#A6A6A6" d="M316.051,277.783h-0.317v-9.023h0.88v4.867l-0.111,2.489l6.477-7.356c0.112,0,0.225,0,0.338,0
			c0,3.014,0,6.026,0,9.023c-0.28,0-0.562,0-0.862,0v-5.432l0.096-1.965L316.051,277.783z M317.193,264.752
			c0.205,1.35,1.328,2.116,2.582,2.116c1.349,0,2.396-0.823,2.584-2.116c-0.188-0.02-0.394-0.074-0.581-0.092
			c-0.187,0.99-1.066,1.516-2.021,1.516c-1.012-0.02-1.798-0.563-1.968-1.516L317.193,264.752z"/>
		<path fill="#A6A6A6" d="M339.979,268.76v9.023h-0.88v-4.251h-5.878v4.251h-0.879v-9.023h0.879v3.969h5.878v-3.969H339.979z"/>
	</g>
	<g>
		<path d="M119.591,180.998l-2.632,5.722h-12.561v-1.644l21.111-44.855h5.524l20.915,44.855v1.644h-12.431l-2.696-5.722H119.591z
			 M123.471,170.936h9.536l-4.801-11.116L123.471,170.936z"/>
		<path d="M172.917,168.962c-1.383,0.197-4.079,0.197-5.723,0.197v17.561h-12.036v-46.039h12.036v18.021
			c1.908,0,5.063,0.131,6.708-0.724c2.104-1.052,2.828-3.814,4.145-9.339c1.382-5.591,5.854-10.129,16.64-7.893v8.09
			c-2.895-0.197-4.867,0.46-5.591,3.289c-1.514,5.524-3.092,9.405-5.655,12.233c4.406,6.84,8.681,13.746,13.152,20.585v1.776
			h-13.613L172.917,168.962z"/>
		<path d="M219.611,140.221c9.471,0,19.861,5.13,21.638,17.429h-11.574c-1.645-4.735-5.131-6.577-10.063-6.577
			c-6.972,0-11.511,4.999-11.511,12.627c0,6.643,4.473,12.497,11.511,12.497c4.997,0,8.944-2.301,10.193-7.3h11.576
			c-1.775,13.087-11.972,18.284-21.771,18.284c-11.772,0-23.546-7.892-23.546-23.415
			C196.065,147.915,207.839,140.221,219.611,140.221z"/>
		<path d="M250.97,186.852h-3.554v-46.17h12.036v22.493l24.007-22.691h3.749v46.236h-12.036v-23.742L250.97,186.852z"/>
		<path d="M334.851,140.55h4.273v46.17H327.09v-21.243l-9.8,10.259h-1.381l-9.801-10.259v21.243h-12.035v-46.17h4.275l18.283,19.928
			L334.851,140.55z"/>
		<path d="M124.162,203.216h-16.706v6.577h15.392v10.521h-15.392v7.5h17.298v10.982H95.42v-46.04h28.742V203.216z"/>
		<path d="M132.356,228.604c3.552-0.065,4.274-1.578,4.802-5.854l3.486-29.992c9.864,0,21.835,0,31.766,0v35.846h4.604v15.588
			h-9.734v-5.394h-27.491v5.394h-9.142v-15.588H132.356z M148.996,223.145c-0.131,1.842-0.658,4.539-2.104,5.723h13.549v-25.782
			h-9.34L148.996,223.145z"/>
		<path d="M203.611,239.652c-12.167,0-23.545-7.893-23.545-23.875c0-15.917,11.771-23.94,23.743-23.94
			c11.771,0,23.479,8.024,23.479,23.94C227.288,229.854,217.554,239.652,203.611,239.652z M203.678,228.273
			c5.722,0,11.574-4.273,11.574-12.496c0-8.221-5.723-12.496-11.443-12.496c-5.984,0-11.708,4.078-11.708,12.496
			C192.101,224,197.757,228.273,203.678,228.273z"/>
		<path d="M232.97,238.73v-46.039c6.839,0,13.481-0.066,20.321,0c11.05,0,16.706,8.617,16.509,17.298
			c0,8.418-5.591,16.836-16.509,16.836h-8.288v11.904H232.97z M253.292,216.37c3.157,0,4.998-3.354,4.998-6.708
			c0-3.289-1.711-6.512-4.998-6.512h-8.483v13.22H253.292z"/>
		<path d="M297.923,239.652c-12.168,0-23.545-7.893-23.545-23.875c0-15.917,11.773-23.94,23.742-23.94
			c11.773,0,23.479,8.024,23.479,23.94C321.6,229.854,311.866,239.652,297.923,239.652z M297.988,228.273
			c5.723,0,11.576-4.273,11.576-12.496c0-8.221-5.722-12.496-11.444-12.496c-5.983,0-11.707,4.078-11.707,12.496
			C286.413,224,292.068,228.273,297.988,228.273z"/>
		<path d="M358.141,214.659c3.749,1.907,5.722,5.655,5.722,9.866c0,7.893-5.129,14.009-14.601,14.009h-22.165v-45.973h20.323
			c8.55,0,14.535,5.59,14.535,14.14C361.956,209.529,360.442,212.818,358.141,214.659z M339.134,203.02v7.694h7.433
			c2.302,0,3.485-1.776,3.551-3.616c0.066-2.039-1.117-4.078-3.551-4.078H339.134z M339.134,220.447v7.63h9.273
			c2.301,0,3.354-1.711,3.551-3.552c0.133-2.105-1.25-4.078-3.616-4.078H339.134z"/>
	</g>
	<path fill="#A6A6A6" d="M101,186.72v-46.499h-5.5l-17,20.707l-17-20.707H56v56.68c-12,0.461-21.215,6.512-21.215,18.812
		c0,12.299,9.215,18.283,21.215,18.68V239h12v-4.607c12-0.396,21.284-5.723,21.284-18.68S80,197.362,68,196.901v-31.425L78,176h1
		l10-10.523v21.243H101z M68,207.229c5,0.196,9.281,1.906,9.281,8.484c0,6.576-5.281,8.221-9.281,8.551V207.229z M56,224.264
		c-4-0.33-9.169-1.975-9.169-8.551c0-6.578,5.169-8.288,9.169-8.484V224.264z"/>
</g>
</svg>
