<?xml version="1.0" encoding="utf-8"?>
<!-- Generator: Adobe Illustrator 16.0.0, SVG Export Plug-In . SVG Version: 6.00 Build 0)  -->
<!DOCTYPE svg PUBLIC "-//W3C//DTD SVG 1.1//EN" "http://www.w3.org/Graphics/SVG/1.1/DTD/svg11.dtd">
<svg version="1.1" id="Layer_1" xmlns="http://www.w3.org/2000/svg" xmlns:xlink="http://www.w3.org/1999/xlink" x="0px" y="0px"
	 width="455px" height="75px" viewBox="0 0 455 75" enable-background="new 0 0 455 75" xml:space="preserve">
<rect display="none" fill="#A6A6A6" width="455" height="75"/>
<g>
	<g>
		<polygon fill="#FFFFFF" points="0,15 3.75,15 3.75,3.75 15,3.75 15,0 0,0 		"/>
		<polygon fill="#FFFFFF" points="3.75,60 0,60 0,75 15,75 15,71.25 3.75,71.25 		"/>
		<g>
			<polygon fill="#FFFFFF" points="60,0 60,3.75 71.25,3.75 71.25,15 75,15 75,0 			"/>
			<polygon fill="#FFFFFF" points="71.25,71.25 60,71.25 60,75 75,75 75,60 71.25,60 			"/>
		</g>
	</g>
</g>
<circle cx="37.5" cy="37.5" r="37.5"/>
<g>
	<path fill="#FFFFFF" d="M49,46.085L44.668,41h-0.64L40,46.085V36h-6v21h1.846l8.479-9.232L52.803,57H55V40c-2.15,0-3.85,0-6,0
		V46.085z"/>
	<path fill="#A6A6A6" d="M40,38V17h-1.805l-8.479,9.232L21.238,17H19v20.756V37.8c-5,0.213-10.039,3.016-10.039,8.714
		S14,54.984,19,55.167V57h6v-1.833c6-0.183,10.041-2.651,10.041-8.653S31,38.013,25,37.8v-9.885L29.373,33h0.64L34,27.915V38H40z
		 M19,50.475c-2-0.152-4.54-0.914-4.54-3.961S17,42.675,19,42.583V50.475z M25,42.583c3,0.091,4.541,0.883,4.541,3.93
		S27,50.322,25,50.475V42.583z"/>
	<path fill="#FFFFFF" d="M55,18.833V17h-6v1.833c-6,0.183-10.041,2.651-10.041,8.653S43,35.987,49,36.2V40c2.15,0,3.85,0,6,0v-3.756
		V36.2c5-0.213,10.039-3.016,10.039-8.714S60,19.016,55,18.833z M49,31.417c-3-0.091-4.541-0.883-4.541-3.93S47,23.678,49,23.525
		V31.417z M55,31.417v-7.891c2,0.152,4.54,0.914,4.54,3.961S57,31.325,55,31.417z"/>
</g>
<g>
	<path fill="#FFFFFF" d="M110.049,15.316h2.416v26.098h-6.803V29.406l-5.54,5.799h-0.78l-5.54-5.799v12.008H87V15.316h2.417
		l10.335,11.265L110.049,15.316z"/>
	<path fill="#FFFFFF" d="M123.396,38.18l-1.488,3.234h-7.1v-0.929l11.933-25.354h3.123l11.823,25.354v0.929h-7.026l-1.524-3.234
		H123.396z M125.589,32.492h5.39l-2.714-6.283L125.589,32.492z"/>
	<path fill="#FFFFFF" d="M154.102,31.376c-0.78,0.112-2.304,0.112-3.233,0.112v9.926h-6.804V15.391h6.804v10.187
		c1.078,0,2.862,0.074,3.792-0.409c1.19-0.595,1.599-2.156,2.342-5.279c0.781-3.16,3.309-5.726,9.406-4.461v4.573
		c-1.636-0.112-2.752,0.26-3.161,1.858c-0.855,3.123-1.747,5.316-3.197,6.915c2.491,3.866,4.907,7.77,7.435,11.636v1.003h-7.695
		L154.102,31.376z"/>
	<path fill="#FFFFFF" d="M181.985,15.131c5.354,0,11.227,2.899,12.231,9.852h-6.542c-0.93-2.677-2.9-3.718-5.688-3.718
		c-3.941,0-6.505,2.826-6.505,7.138c0,3.755,2.528,7.064,6.505,7.064c2.825,0,5.056-1.302,5.763-4.127h6.542
		c-1.004,7.398-6.766,10.335-12.305,10.335c-6.655,0-13.309-4.461-13.309-13.235C168.676,19.48,175.33,15.131,181.985,15.131z"/>
	<path fill="#FFFFFF" d="M200.275,41.488h-2.007V15.391h6.803v12.714l13.57-12.826h2.119v26.135h-6.804v-13.42L200.275,41.488z"/>
	<path fill="#FFFFFF" d="M249.385,15.316h2.416v26.098h-6.803V29.406l-5.54,5.799h-0.78l-5.54-5.799v12.008h-6.804V15.316h2.417
		l10.335,11.265L249.385,15.316z"/>
	<path fill="#FFFFFF" d="M276.933,38.923c-6.73-0.223-12.269-3.606-12.269-10.558s5.539-10.372,12.23-10.632v-2.454h6.357v2.454
		c6.917,0.26,12.232,3.309,12.232,10.632s-5.54,10.335-12.269,10.558v2.565h-6.282V38.923z M277.006,33.199v-9.629
		c-2.9,0.111-5.54,1.079-5.54,4.796C271.466,32.083,274.293,33.012,277.006,33.199z M283.14,23.569v9.629
		c2.751-0.187,5.54-1.116,5.54-4.833C288.679,24.648,286.04,23.681,283.14,23.569z"/>
	<path fill="#FFFFFF" d="M316.04,21.302h-9.442v3.718h8.7v5.948h-8.7v4.238h9.778v6.208h-16.581V15.391h16.245V21.302z"/>
	<path fill="#FFFFFF" d="M320.315,35.652c2.009-0.038,2.416-0.893,2.715-3.309l1.971-16.953c5.576,0,12.341,0,17.955,0v20.262h2.604
		v8.81h-5.503v-3.048h-15.54v3.048h-5.167v-8.81H320.315z M329.721,32.566c-0.073,1.042-0.372,2.565-1.189,3.235h7.659V21.227
		h-5.279L329.721,32.566z"/>
	<path fill="#FFFFFF" d="M361.619,41.897c-6.878,0-13.311-4.461-13.311-13.495c0-8.996,6.656-13.532,13.423-13.532
		c6.654,0,13.271,4.536,13.271,13.532C375.003,36.358,369.5,41.897,361.619,41.897z M361.656,35.466
		c3.233,0,6.542-2.417,6.542-7.064c0-4.647-3.233-7.063-6.467-7.063c-3.384,0-6.618,2.305-6.618,7.063
		C355.113,33.05,358.311,35.466,361.656,35.466z"/>
	<path fill="#FFFFFF" d="M379.239,41.377V15.354c3.866,0,7.622-0.037,11.488,0c6.246,0,9.442,4.87,9.331,9.777
		c0,4.759-3.16,9.517-9.331,9.517h-4.686v6.729H379.239z M390.728,28.737c1.784,0,2.825-1.896,2.825-3.792
		c0-1.859-0.966-3.681-2.825-3.681h-4.795v7.473H390.728z"/>
	<path fill="#FFFFFF" d="M415.598,41.897c-6.878,0-13.309-4.461-13.309-13.495c0-8.996,6.654-13.532,13.421-13.532
		c6.654,0,13.271,4.536,13.271,13.532C428.981,36.358,423.48,41.897,415.598,41.897z M415.635,35.466
		c3.235,0,6.544-2.417,6.544-7.064c0-4.647-3.235-7.063-6.469-7.063c-3.383,0-6.618,2.305-6.618,7.063
		C409.092,33.05,412.289,35.466,415.635,35.466z"/>
	<path fill="#FFFFFF" d="M450.767,27.771c2.119,1.078,3.233,3.197,3.233,5.577c0,4.461-2.898,7.918-8.253,7.918H433.22V15.279
		h11.486c4.834,0,8.216,3.16,8.216,7.993C452.922,24.871,452.068,26.73,450.767,27.771z M440.022,21.19v4.35h4.201
		c1.3,0,1.969-1.004,2.008-2.045c0.036-1.152-0.633-2.305-2.008-2.305H440.022z M440.022,31.042v4.312h5.241
		c1.301,0,1.896-0.966,2.009-2.007c0.073-1.19-0.708-2.305-2.046-2.305H440.022z"/>
</g>
<g>
	<path d="M87,58.787v-5.772h4.06v1.15h-2.79v4.623H87z"/>
	<path d="M109.956,52.859c1.701,0,2.611,1.425,2.611,3.006c0,1.856-1.341,3.054-2.886,2.982c-0.479-0.024-0.981-0.167-1.46-0.456
		v3.366h-1.306v-6.898c0-0.67,0.06-0.994-0.611-0.994l-0.012-0.898c0.958-0.192,1.688-0.036,1.688,0.982
		C108.316,53.146,109.13,52.859,109.956,52.859z M108.196,57.242c0.479,0.335,1.006,0.491,1.474,0.467
		c0.874-0.036,1.581-0.67,1.581-1.844c0-0.958-0.515-1.845-1.557-1.845c-0.898,0-1.497,0.743-1.497,1.605V57.242z"/>
	<path d="M130.039,58.894c-1.054,0-2.072-0.67-2.072-1.796c-0.036-1.377,0.97-2.036,2.239-2.036c0.563,0,1.198,0.144,1.713,0.431
		v-0.575c0-1.521-2.599-1.018-3.317-0.659l-0.192-0.933c0.587-0.3,1.365-0.456,2.132-0.456c1.401,0,2.646,0.491,2.646,2.083v2.276
		c0,0.539-0.024,0.886,0.599,0.827l0.024,0.742c-0.91,0.155-1.617,0.155-1.653-0.982C131.776,58.583,130.854,58.894,130.039,58.894z
		 M131.919,56.332c-0.431-0.251-0.982-0.407-1.497-0.396c-0.634,0.012-1.174,0.383-1.174,1.09c0,0.575,0.527,0.839,1.054,0.839
		c0.682,0,1.485-0.324,1.617-1.054V56.332z"/>
	<path d="M153.068,61.721v-3.33c-2.096,1.15-3.916,0-3.916-2.502c0-2.515,1.82-3.665,3.916-2.515v-3.306h1.281v3.306
		c2.084-1.149,3.904,0,3.904,2.515c0,2.502-1.82,3.652-3.904,2.502v3.33H153.068z M153.104,57.266v-2.767
		c-1.366-0.934-2.635-0.287-2.635,1.39S151.738,58.212,153.104,57.266z M154.325,54.499v2.767c1.354,0.946,2.623,0.3,2.623-1.377
		S155.679,53.565,154.325,54.499z"/>
	<path d="M174.482,58.799h-0.359v-5.785h1.27v3.473l3.617-3.485c0.144,0,0.275,0,0.407,0c0,1.929,0,3.856,0,5.785
		c-0.419,0-0.839,0-1.257,0v-3.485L174.482,58.799z"/>
	<path d="M199.152,55.421v-2.407h1.27v5.772h-1.293v-2.12c-1.917,0.862-3.929,0.096-3.929-2.311v-1.341h1.317v1.341
		C196.517,55.948,198.182,56.164,199.152,55.421z"/>
	<path d="M221.809,56.14h-4.263c0,1.053,0.827,1.676,1.881,1.676c0.718,0.036,1.413-0.06,2.095-0.359l0.168,0.97
		c-0.671,0.299-1.449,0.491-2.18,0.491c-1.904,0.036-3.306-1.186-3.246-3.138c0.036-1.928,1.425-2.898,2.994-2.898
		C221.282,52.883,222.192,54.224,221.809,56.14z M217.57,55.217h3.186c0.036-0.874-0.683-1.329-1.509-1.329
		C218.384,53.888,217.75,54.308,217.57,55.217z"/>
	<path d="M241.988,54.931c-0.251-0.623-0.862-0.922-1.533-0.922c-0.886,0-1.796,0.647-1.796,1.868c0,1.246,0.898,1.88,1.772,1.88
		c0.646,0,1.293-0.348,1.557-1.054h1.246c-0.3,1.461-1.557,2.179-2.827,2.179c-1.509,0-3.042-1.005-3.042-3.005
		c0-1.988,1.532-3.018,3.03-3.03c1.257-0.012,2.491,0.67,2.802,2.084H241.988z"/>
	<path d="M260.885,55.313c1.449,0,1.964-0.921,1.964-2.312h1.246c0.011,1.257-0.312,2.372-1.509,2.922l1.856,2.73v0.132h-1.366
		l-1.605-2.443c-0.179,0.048-0.418,0.06-0.61,0.06h-0.575v2.383h-1.293v-5.772h1.293v2.299H260.885z"/>
	<path d="M280.429,58.799h-0.359v-5.785h1.27v3.473l3.617-3.485c0.144,0,0.275,0,0.407,0c0,1.929,0,3.856,0,5.785
		c-0.419,0-0.839,0-1.258,0v-3.485L280.429,58.799z"/>
	<path d="M301.926,58.799h-0.359v-5.785h1.27v3.473l3.616-3.485c0.144,0,0.273,0,0.407,0c0,1.929,0,3.856,0,5.785
		c-0.419,0-0.839,0-1.259,0v-3.485L301.926,58.799z M302.584,50.631c0.084,1.053,0.838,1.688,1.832,1.688
		c1.053,0,1.795-0.659,1.881-1.688c-0.253-0.037-0.575-0.072-0.84-0.096c-0.095,0.551-0.515,0.754-1.053,0.754
		c-0.552-0.012-0.935-0.251-1.006-0.754L302.584,50.631z"/>
	<path d="M340.053,60.115l-0.035-2.347c0,0,0.012,0,0.023,0h0.121c0.851,0,0.92-0.827,1.064-1.844l0.419-2.91h4.071v4.754h0.779
		l-0.035,2.347h-1.127v-1.329h-4.107v1.329H340.053z M344.46,54.104h-1.76l-0.275,2.191c-0.132,0.874-0.228,1.233-0.54,1.473h2.575
		V54.104z"/>
	<path d="M362.615,58.799h-0.359v-5.785h1.27v3.473l3.615-3.485c0.146,0,0.276,0,0.408,0c0,1.929,0,3.856,0,5.785
		c-0.42,0-0.839,0-1.259,0v-3.485L362.615,58.799z"/>
	<path d="M383.523,53.35c0.528-0.287,1.343-0.456,2.121-0.456c1.137,0,2.31,0.372,2.31,1.582c0,0.586-0.311,1.054-0.909,1.209
		c0.742,0.18,1.246,0.707,1.246,1.485c0,1.294-1.258,1.761-2.527,1.761c-0.911,0-1.855-0.24-2.433-0.587l0.074-1.102
		c0.395,0.299,1.4,0.587,2.166,0.599c0.695,0,1.342-0.192,1.342-0.815c0-0.766-0.802-0.802-1.438-0.802c-0.287,0-0.562,0-0.849,0
		v-0.899c0.263,0,0.526,0,0.791,0c0.549,0,1.161-0.047,1.161-0.707c0-0.599-0.589-0.73-1.161-0.73c-0.54,0-1.366,0.145-1.822,0.408
		L383.523,53.35z"/>
	<path d="M405.738,58.894c-1.053,0-2.071-0.67-2.071-1.796c-0.037-1.377,0.97-2.036,2.24-2.036c0.563,0,1.196,0.144,1.711,0.431
		v-0.575c0-1.521-2.597-1.018-3.317-0.659l-0.19-0.933c0.586-0.3,1.365-0.456,2.131-0.456c1.402,0,2.647,0.491,2.647,2.083v2.276
		c0,0.539-0.023,0.886,0.599,0.827l0.022,0.742c-0.908,0.155-1.615,0.155-1.65-0.982C407.475,58.583,406.554,58.894,405.738,58.894z
		 M407.618,56.332c-0.432-0.251-0.981-0.407-1.496-0.396c-0.635,0.012-1.173,0.383-1.173,1.09c0,0.575,0.526,0.839,1.053,0.839
		c0.682,0,1.486-0.324,1.616-1.054V56.332z"/>
	<path d="M425.545,58.799h-0.359v-5.785h1.271v3.473l3.617-3.485c0.142,0,0.276,0,0.406,0c0,1.929,0,3.856,0,5.785
		c-0.418,0-0.838,0-1.257,0v-3.485L425.545,58.799z M426.204,50.631c0.083,1.053,0.839,1.688,1.833,1.688
		c1.054,0,1.797-0.659,1.881-1.688c-0.253-0.037-0.575-0.072-0.839-0.096c-0.096,0.551-0.515,0.754-1.056,0.754
		c-0.549-0.012-0.934-0.251-1.004-0.754L426.204,50.631z"/>
	<path d="M452,53.014v5.772h-1.271v-2.419h-2.789v2.419h-1.257v-5.772h1.257v2.215h2.789v-2.215H452z"/>
</g>
<g>
</g>
<g>
</g>
<g>
</g>
<g>
</g>
<g>
</g>
<g>
</g>
<g>
</g>
<g>
</g>
<g>
</g>
<g>
</g>
<g>
</g>
<g>
</g>
<g>
</g>
<g>
</g>
<g>
</g>
</svg>
