<?xml version="1.0" encoding="utf-8"?>
<!-- Generator: Adobe Illustrator 16.0.0, SVG Export Plug-In . SVG Version: 6.00 Build 0)  -->
<!DOCTYPE svg PUBLIC "-//W3C//DTD SVG 1.1//EN" "http://www.w3.org/Graphics/SVG/1.1/DTD/svg11.dtd">
<svg version="1.1" id="Layer_1" xmlns="http://www.w3.org/2000/svg" xmlns:xlink="http://www.w3.org/1999/xlink" x="0px" y="0px"
	 width="400px" height="400px" viewBox="0 0 400 400" enable-background="new 0 0 400 400" xml:space="preserve">
<g>
	<g>
		<path fill="#A6A6A6" d="M0,80h20V20h60V0H0V80z M20,320H0v80h80v-20H20V320z M320,0v20h60v60h20V0H320z M380,380h-60v20h80v-80
			h-20V380z"/>
	</g>
</g>
<circle fill="#FFFFFF" cx="200" cy="200" r="200"/>
<g>
	<g>
		<path fill="#A6A6A6" d="M56.979,277.783v-9.023h6.028v0.804h-5.129v8.22H56.979z"/>
		<path fill="#A6A6A6" d="M72.088,270.575c0.731-1.497,2.004-2.041,3.576-2.041c2.639,0,4.1,2.208,4.1,4.699
			c0,4.286-4.288,5.972-7.563,3.538v5.673h-0.88v-10.933c0-1.367,0.112-2.303-1.16-2.098l-0.038-0.748
			c1.498-0.244,1.965,0.394,1.965,1.648V270.575z M72.202,275.836c2.752,2.303,6.646,1.255,6.646-2.603
			c0-2.021-1.123-3.857-3.333-3.857c-1.985,0-3.257,1.554-3.313,3.445V275.836z"/>
		<path fill="#A6A6A6" d="M90.626,277.931c-1.572,0-3.201-1.009-3.201-2.731c0-2.041,1.684-3.033,3.5-3.033
			c1.123,0,2.321,0.243,3.351,0.787v-1.386c0-1.761-1.61-2.208-3.052-2.208c-1.047,0-2.134,0.242-2.902,0.691l-0.206-0.749
			c0.842-0.468,2.041-0.749,3.221-0.749c1.947,0,3.799,0.787,3.799,3.033l-0.019,4.118c0,1.086-0.056,1.704,1.142,1.554l0.038,0.619
			c-1.535,0.242-1.928-0.301-1.872-1.724C93.715,277.465,92.124,277.931,90.626,277.931z M94.276,273.738
			c-0.974-0.523-2.171-0.843-3.238-0.823c-1.348,0-2.79,0.749-2.734,2.245c0.057,1.387,1.216,2.005,2.472,2.005
			c1.459,0,3.107-0.655,3.5-2.21V273.738z"/>
		<path fill="#A6A6A6" d="M110.379,282.369v-5.635c-3.293,2.357-6.683,0.861-6.683-3.501c0-4.381,3.389-5.858,6.683-3.52v-5.561
			h0.88v5.561c3.257-2.339,6.646-0.861,6.646,3.52c0,4.362-3.389,5.858-6.646,3.501v5.635H110.379z M110.398,275.872v-5.278
			c-2.733-2.284-5.765-1.272-5.765,2.64S107.665,278.139,110.398,275.872z M111.259,270.594v5.278
			c2.714,2.267,5.748,1.273,5.748-2.639S113.974,268.31,111.259,270.594z"/>
		<path fill="#A6A6A6" d="M126.708,277.783h-0.318v-9.023h0.88v4.867l-0.113,2.489l6.478-7.356c0.112,0,0.225,0,0.337,0
			c0,3.013,0,6.026,0,9.023c-0.281,0-0.562,0-0.861,0v-5.431l0.093-1.965L126.708,277.783z"/>
		<path fill="#A6A6A6" d="M148.765,272.971v-4.211h0.88v9.023h-0.898v-3.857c-2.677,1.797-6.383,1.067-6.383-2.996v-2.17h0.898v2.17
			C143.261,274.395,146.444,274.768,148.765,272.971z"/>
		<path fill="#A6A6A6" d="M166.646,273.308h-7.657c0,2.603,1.629,3.8,4.006,3.857c1.216-0.02,2.247-0.301,3.127-0.692l0.186,0.766
			c-1.048,0.469-2.246,0.73-3.294,0.73c-3.033,0-5.073-1.777-4.923-5.016c0.149-2.752,1.984-4.383,4.568-4.383
			C165.58,268.59,167.152,270.294,166.646,273.308z M165.897,272.54c0.207-2.133-1.255-3.219-3.276-3.219
			c-2.022,0-3.407,1.198-3.613,3.219H165.897z"/>
		<path fill="#A6A6A6" d="M182.487,271.249c-0.543-1.255-1.797-1.873-3.089-1.89c-1.929-0.02-3.969,1.291-3.969,3.874
			c0,2.546,1.948,3.874,3.838,3.874c1.385,0,2.733-0.71,3.295-2.152h0.897c-0.618,1.984-2.415,2.958-4.23,2.958
			c-2.321,0-4.698-1.572-4.698-4.68c0-3.127,2.471-4.718,4.849-4.681c1.722,0.037,3.388,0.918,3.987,2.696H182.487z"/>
		<path fill="#A6A6A6" d="M194.136,272.69c2.639,0,4.024-1.235,4.024-3.95h0.861c0.018,2.078-0.768,3.726-2.808,4.344l3.257,4.568
			v0.112h-0.955l-3.125-4.419c-0.394,0.075-0.823,0.113-1.273,0.113h-1.479v4.306h-0.898v-9.024h0.898v3.95H194.136z"/>
		<path fill="#A6A6A6" d="M207.842,277.783h-0.317v-9.023h0.879v4.867l-0.112,2.489l6.478-7.356c0.112,0,0.224,0,0.337,0
			c0,3.013,0,6.026,0,9.023c-0.281,0-0.562,0-0.861,0v-5.431l0.094-1.965L207.842,277.783z"/>
		<path fill="#A6A6A6" d="M224.45,277.783h-0.318v-9.023h0.881v4.867l-0.112,2.489l6.477-7.356c0.112,0,0.225,0,0.337,0
			c0,3.013,0,6.026,0,9.023c-0.279,0-0.561,0-0.859,0v-5.431l0.093-1.965L224.45,277.783z M225.593,264.752
			c0.206,1.35,1.329,2.116,2.583,2.116c1.348,0,2.397-0.823,2.583-2.116c-0.186-0.019-0.392-0.074-0.579-0.092
			c-0.188,0.991-1.068,1.516-2.022,1.516c-1.011-0.02-1.797-0.562-1.967-1.516L225.593,264.752z"/>
		<path fill="#A6A6A6" d="M250.571,280.141l-0.018-3.087c0,0,0,0,0.018,0h0.338c1.403,0,1.498-1.63,1.74-3.614l0.617-4.68h5.58
			v8.294h1.254l-0.019,3.087h-0.786v-2.357h-7.938v2.357H250.571z M257.984,269.544h-3.987l-0.581,4.438
			c-0.242,1.779-0.335,2.528-1.121,3.072h5.689V269.544z"/>
		<path fill="#A6A6A6" d="M268.51,277.783h-0.318v-9.023h0.879v4.867l-0.112,2.489l6.478-7.356c0.111,0,0.224,0,0.339,0
			c0,3.013,0,6.026,0,9.023c-0.282,0-0.563,0-0.862,0v-5.431l0.093-1.965L268.51,277.783z"/>
		<path fill="#A6A6A6" d="M284.331,269.321c0.824-0.469,2.021-0.731,3.09-0.731c1.591,0,3.313,0.563,3.313,2.397
			c0,0.991-0.504,1.759-1.534,1.983c1.254,0.225,2.096,1.03,2.096,2.34c0,1.91-1.853,2.658-3.649,2.658
			c-1.367,0-2.789-0.43-3.651-1.104l0.058-0.897c0.729,0.692,2.34,1.216,3.482,1.216c1.421-0.018,2.844-0.56,2.844-1.946
			c0-1.723-1.74-1.835-3.2-1.835c-0.375,0-0.749,0-1.087,0v-0.729c0.338,0,0.674,0.019,1.048,0.019
			c1.237-0.019,2.678-0.15,2.678-1.629c0-1.386-1.328-1.666-2.508-1.666c-0.917,0-2.135,0.242-2.884,0.711L284.331,269.321z"/>
		<path fill="#A6A6A6" d="M302.119,277.931c-1.573,0-3.201-1.009-3.201-2.731c0-2.041,1.686-3.033,3.501-3.033
			c1.124,0,2.321,0.243,3.351,0.787v-1.386c0-1.761-1.61-2.208-3.051-2.208c-1.049,0-2.134,0.242-2.901,0.691l-0.207-0.749
			c0.842-0.468,2.041-0.749,3.221-0.749c1.947,0,3.799,0.787,3.799,3.033l-0.019,4.118c0,1.086-0.055,1.704,1.142,1.554l0.038,0.619
			c-1.535,0.242-1.927-0.301-1.871-1.724C305.208,277.465,303.616,277.931,302.119,277.931z M305.77,273.738
			c-0.973-0.523-2.172-0.843-3.238-0.823c-1.348,0-2.79,0.749-2.733,2.245c0.056,1.387,1.217,2.005,2.472,2.005
			c1.459,0,3.106-0.655,3.5-2.21V273.738z"/>
		<path fill="#A6A6A6" d="M316.05,277.783h-0.317v-9.023h0.88v4.867l-0.112,2.489l6.477-7.356c0.112,0,0.225,0,0.338,0
			c0,3.013,0,6.026,0,9.023c-0.28,0-0.562,0-0.862,0v-5.431l0.095-1.965L316.05,277.783z M317.193,264.752
			c0.205,1.35,1.328,2.116,2.582,2.116c1.349,0,2.396-0.823,2.584-2.116c-0.188-0.019-0.394-0.074-0.581-0.092
			c-0.187,0.991-1.067,1.516-2.021,1.516c-1.011-0.02-1.798-0.562-1.967-1.516L317.193,264.752z"/>
		<path fill="#A6A6A6" d="M339.979,268.76v9.023h-0.88v-4.251h-5.878v4.251h-0.879v-9.023h0.879v3.968h5.878v-3.968H339.979z"/>
	</g>
	<g>
		<path d="M119.591,180.998l-2.632,5.722h-12.561v-1.644l21.112-44.855h5.524l20.915,44.855v1.644h-12.431l-2.696-5.722H119.591z
			 M123.471,170.936h9.537l-4.801-11.116L123.471,170.936z"/>
		<path d="M172.917,168.962c-1.383,0.197-4.079,0.197-5.723,0.197v17.561h-12.036v-46.039h12.036v18.021
			c1.908,0,5.064,0.131,6.708-0.724c2.105-1.052,2.828-3.814,4.145-9.339c1.381-5.591,5.853-10.129,16.639-7.893v8.09
			c-2.894-0.197-4.867,0.46-5.591,3.289c-1.513,5.524-3.091,9.405-5.655,12.233c4.406,6.84,8.681,13.746,13.153,20.585v1.776
			h-13.614L172.917,168.962z"/>
		<path d="M219.611,140.221c9.471,0,19.861,5.13,21.638,17.429h-11.574c-1.645-4.735-5.131-6.577-10.063-6.577
			c-6.972,0-11.511,4.999-11.511,12.627c0,6.643,4.473,12.497,11.511,12.497c4.997,0,8.944-2.301,10.193-7.3h11.577
			c-1.776,13.087-11.972,18.284-21.771,18.284c-11.772,0-23.546-7.892-23.546-23.415
			C196.065,147.915,207.839,140.221,219.611,140.221z"/>
		<path d="M250.97,186.852h-3.553v-46.17h12.036v22.493l24.007-22.691h3.749v46.236h-12.036v-23.742L250.97,186.852z"/>
		<path d="M334.851,140.55h4.273v46.17h-12.035v-21.243l-9.799,10.259h-1.381l-9.801-10.259v21.243h-12.035v-46.17h4.275
			l18.283,19.928L334.851,140.55z"/>
		<path fill="#A6A6A6" d="M101,186v-45h-3.02l-18.219,19.928L61.478,141H56v55.901c-12,0.461-21.215,6.512-21.215,18.812
			c0,12.299,9.215,18.283,21.215,18.679V239h12v-4.608c12-0.396,21.284-5.722,21.284-18.679S80,197.362,68,196.901v-31.425
			L79.038,176h1.381L89,165.477V186H101z M68,207.229c5,0.196,9.281,1.906,9.281,8.484c0,6.576-5.281,8.221-9.281,8.55V207.229z
			 M56,224.263c-4-0.329-9.169-1.974-9.169-8.55c0-6.578,5.169-8.288,9.169-8.484V224.263z"/>
		<path d="M124.162,203.216h-16.706v6.577h15.391v10.522h-15.391v7.499h17.298v10.983H95.42v-46.04h28.742V203.216z"/>
		<path d="M132.356,228.604c3.552-0.066,4.275-1.578,4.802-5.854l3.486-29.992c9.865,0,21.835,0,31.766,0v35.846h4.604v15.587
			h-9.734v-5.393h-27.491v5.393h-9.142v-15.587H132.356z M148.996,223.145c-0.131,1.842-0.658,4.538-2.104,5.722h13.549v-25.782
			h-9.34L148.996,223.145z"/>
		<path d="M203.611,239.652c-12.167,0-23.545-7.892-23.545-23.875c0-15.916,11.772-23.94,23.743-23.94
			c11.772,0,23.479,8.024,23.479,23.94C227.288,229.854,217.554,239.652,203.611,239.652z M203.678,228.274
			c5.722,0,11.575-4.274,11.575-12.497c0-8.221-5.723-12.496-11.444-12.496c-5.984,0-11.708,4.078-11.708,12.496
			C192.101,224,197.757,228.274,203.678,228.274z"/>
		<path d="M232.97,238.731v-46.039c6.839,0,13.482-0.066,20.322,0c11.05,0,16.706,8.617,16.509,17.298
			c0,8.418-5.591,16.836-16.509,16.836h-8.288v11.905H232.97z M253.292,216.37c3.157,0,4.998-3.354,4.998-6.708
			c0-3.289-1.711-6.512-4.998-6.512h-8.484v13.22H253.292z"/>
		<path d="M297.923,239.652c-12.168,0-23.545-7.892-23.545-23.875c0-15.916,11.773-23.94,23.742-23.94
			c11.773,0,23.479,8.024,23.479,23.94C321.6,229.854,311.866,239.652,297.923,239.652z M297.988,228.274
			c5.722,0,11.576-4.274,11.576-12.497c0-8.221-5.722-12.496-11.444-12.496c-5.984,0-11.707,4.078-11.707,12.496
			C286.413,224,292.068,228.274,297.988,228.274z"/>
		<path d="M358.141,214.659c3.749,1.908,5.722,5.656,5.722,9.866c0,7.893-5.129,14.009-14.601,14.009h-22.165v-45.973h20.323
			c8.55,0,14.536,5.59,14.536,14.14C361.956,209.529,360.442,212.818,358.141,214.659z M339.133,203.019v7.695h7.433
			c2.302,0,3.485-1.776,3.551-3.617c0.066-2.039-1.117-4.078-3.551-4.078H339.133z M339.133,220.447v7.63h9.274
			c2.301,0,3.354-1.711,3.551-3.552c0.132-2.105-1.25-4.078-3.617-4.078H339.133z"/>
	</g>
</g>
</svg>
