<?xml version="1.0" encoding="utf-8"?>
<!-- Generator: Adobe Illustrator 16.0.0, SVG Export Plug-In . SVG Version: 6.00 Build 0)  -->
<!DOCTYPE svg PUBLIC "-//W3C//DTD SVG 1.1//EN" "http://www.w3.org/Graphics/SVG/1.1/DTD/svg11.dtd">
<svg version="1.1" id="Layer_1" xmlns="http://www.w3.org/2000/svg" xmlns:xlink="http://www.w3.org/1999/xlink" x="0px" y="0px"
	 width="130px" height="80px" viewBox="0 0 130 80" enable-background="new 0 0 130 80" xml:space="preserve">
<g>
	<path fill="#FFFFFF" d="M2.301,42.51L16.032,0h28.921l-7.595,26.864c11.685,3.247,20.449,12.693,20.449,25.978
		C57.807,69.373,45.245,80,28.886,80C12.818,80,0.257,69.373,0.257,52.842C0.257,48.414,0.841,46.052,2.301,42.51z M74.751,42.51
		L88.481,0h28.921l-7.595,26.864c11.685,3.247,20.449,12.693,20.449,25.978c0,16.531-12.562,27.158-28.921,27.158
		c-16.068,0-28.63-10.627-28.63-27.158C72.706,48.414,73.291,46.052,74.751,42.51z"/>
</g>
</svg>
